<svg xmlns="http://www.w3.org/2000/svg" xmlns:xlink="http://www.w3.org/1999/xlink" width="256" height="256" viewBox="0 0 256 256">
  <defs>
    <clipPath id="clip-icon">
      <rect width="256" height="256"/>
    </clipPath>
  </defs>
  <g id="icon" clip-path="url(#clip-icon)">
    <rect width="256" height="256" fill="#fff"/>
    <g id="LOGO" transform="translate(-152.824 50.049)">
      <g id="Layer_1" data-name="Layer 1" transform="translate(185.824 9.951)">
        <path id="Path_7" data-name="Path 7" d="M239.443,10.4h3.51A46.53,46.53,0,0,1,288.2,56.423v.78a46.569,46.569,0,0,1-21.061,39,45.516,45.516,0,0,1-25.742,7.8h-.78a46.1,46.1,0,0,1-21.452-5.46V150.42l-.39.39H194.59l-.39-.39h0V55.643q0-17.551,15.211-32.762A45.009,45.009,0,0,1,239.443,10.4ZM241,35.362h-.78c-7.411,0-13.261,3.9-18.331,11.7a29.915,29.915,0,0,0-2.73,10.531,21.8,21.8,0,0,0,12.873,19.892A23.129,23.129,0,0,0,241,79.435h1.17a20.984,20.984,0,0,0,19.111-12.091,20.79,20.79,0,0,0,2.34-9.361v-1.17A21.413,21.413,0,0,0,251.534,37.7a35.1,35.1,0,0,0-8.581-2.34Z" transform="translate(-194.2 -10.4)" fill="#4088e6"/>
        <path id="Path_8" data-name="Path 8" d="M265.843,10.4h3.51A46.53,46.53,0,0,1,314.6,56.423v.78a46.57,46.57,0,0,1-21.061,39,45.516,45.516,0,0,1-25.742,7.8h-.78a46.1,46.1,0,0,1-21.452-5.46V150.42l-.39.39H220.99l-.39-.39h0V55.643q0-17.551,15.211-32.762A45.009,45.009,0,0,1,265.843,10.4Zm1.56,24.962h-.78c-7.41,0-13.261,3.9-18.331,11.7a29.919,29.919,0,0,0-2.73,10.531,21.8,21.8,0,0,0,12.873,19.892,23.129,23.129,0,0,0,8.969,1.949h1.17a20.984,20.984,0,0,0,19.111-12.091,20.79,20.79,0,0,0,2.34-9.361v-1.17A21.412,21.412,0,0,0,277.934,37.7a35.1,35.1,0,0,0-8.58-2.34Z" transform="translate(-117.632 -10.4)" fill="#4088e6"/>
        <path id="Path_9" data-name="Path 9" d="M229.213,14.1a30.617,30.617,0,1,1-21.845,8.967A30.812,30.812,0,0,1,229.213,14.1Z" transform="translate(-182.019 0.331)" fill="#fff"/>
        <path id="Path_10" data-name="Path 10" d="M217.433,16.9a17.669,17.669,0,0,0-6.241,1.17,6.961,6.961,0,1,1-2.73,13.651,6.67,6.67,0,0,1-5.46-5.07,15.172,15.172,0,1,0,19.5-8.971,19.774,19.774,0,0,0-5.07-.78Z" transform="translate(-171.41 8.452)" fill="#2c3c45"/>
        <path id="Path_11" data-name="Path 11" d="M255.313,14.1a30.617,30.617,0,1,1-21.845,8.967A30.812,30.812,0,0,1,255.313,14.1Z" transform="translate(-106.322 0.331)" fill="#fff"/>
        <path id="Path_12" data-name="Path 12" d="M243.633,16.9a17.668,17.668,0,0,0-6.241,1.17,6.961,6.961,0,1,1-2.73,13.651,6.67,6.67,0,0,1-5.46-5.07,15.172,15.172,0,1,0,19.5-8.971A22.818,22.818,0,0,0,243.633,16.9Z" transform="translate(-95.422 8.452)" fill="#2c3c45"/>
      </g>
    </g>
  </g>
</svg>
